<?xml version="1.0" encoding="iso-8859-1"?>
<!-- Uploaded to: SVG Repo, www.svgrepo.com, Generator: SVG Repo Mixer Tools -->
<svg fill="#000000" height="800px" width="800px" version="1.1" id="Layer_1" xmlns="http://www.w3.org/2000/svg" xmlns:xlink="http://www.w3.org/1999/xlink" 
	 viewBox="0 0 512 512" xml:space="preserve">
<g>
	<g>
		<path d="M453.083,125.196c-11.811-22.797-35.796-37.655-61.88-37.655c-26.083,0-50.066,14.857-61.876,37.655
			c-32.627,0.809-58.918,27.593-58.918,60.399c0,5.797,4.699,10.496,10.496,10.496h220.599c5.797,0,10.496-4.699,10.496-10.496
			C512,152.789,485.71,126.005,453.083,125.196z M292.819,175.1c4.609-16.662,19.912-28.931,38.029-28.931
			c1.323,0,2.7,0.071,4.089,0.212c4.718,0.469,9.162-2.266,10.856-6.69c7.136-18.636,25.385-31.157,45.409-31.157
			c20.026,0,38.276,12.522,45.413,31.159c1.694,4.424,6.15,7.167,10.856,6.689c1.39-0.14,2.765-0.211,4.087-0.211
			c18.117,0,33.42,12.269,38.029,28.93H292.819z"/>
	</g>
</g>
<g>
	<g>
		<path d="M147.059,52.541c-9.86-17.937-29.085-29.553-49.952-29.553c-20.865,0-40.09,11.616-49.95,29.553
			C20.938,53.879,0.021,75.59,0.021,102.087c0,5.797,4.699,10.496,10.496,10.496h173.183c5.797,0,10.496-4.699,10.496-10.496
			C194.196,75.59,173.278,53.879,147.059,52.541z M23.012,91.592c4.208-10.604,14.596-18.125,26.712-18.125
			c0.953,0,1.961,0.052,2.992,0.155c4.705,0.467,9.15-2.265,10.846-6.684c5.269-13.732,18.749-22.959,33.543-22.959
			c14.796,0,28.277,9.226,33.544,22.959c1.695,4.419,6.139,7.155,10.846,6.685c1.031-0.104,2.037-0.155,2.991-0.155
			c12.118,0,22.506,7.52,26.715,18.124H23.012z"/>
	</g>
</g>
<g>
	<g>
		<path d="M286.819,468.019h-2.794c-5.797,0-10.496,4.699-10.496,10.496c0,5.797,4.699,10.496,10.496,10.496h2.794
			c5.797,0,10.496-4.699,10.496-10.496C297.315,472.718,292.616,468.019,286.819,468.019z"/>
	</g>
</g>
<g>
	<g>
		<path d="M509.162,474.259l-117.97-265.963c-1.684-3.794-5.444-6.24-9.594-6.24c-4.15,0-7.912,2.447-9.594,6.24l-63.277,142.663
			L195.998,132.901c-1.802-3.487-5.399-5.676-9.324-5.676c-3.924,0-7.521,2.189-9.324,5.676L1.172,473.696
			c-1.683,3.254-1.546,7.15,0.359,10.278c1.904,3.129,5.303,5.038,8.966,5.038h237.842c5.797,0,10.496-4.699,10.496-10.496
			s-4.699-10.496-10.496-10.496H27.738L121.266,287.1l28.049,20.353c1.846,1.339,4.007,2.001,6.163,2.001
			c2.502,0,4.997-0.892,6.976-2.652l24.166-21.487l24.089,21.477c3.689,3.289,9.172,3.558,13.165,0.65l28.128-20.494l93.607,181.071
			h-23.105c-5.797,0-10.496,4.699-10.496,10.496c0,5.797,4.699,10.496,10.496,10.496h40.325c7.706,0,12.903-8.435,9.346-15.316
			l-51.089-98.829l16.076-36.243l16.464,12.001c1.85,1.349,4.019,2.014,6.181,2.014c2.52,0,5.031-0.905,7.017-2.688l14.998-13.472
			l14.95,13.463c3.7,3.331,9.233,3.606,13.245,0.655l16.082-11.835l57.333,129.258h-84.891c-5.797,0-10.496,4.699-10.496,10.496
			c0,5.797,4.699,10.496,10.496,10.496h101.029c3.552,0,6.862-1.796,8.799-4.774C510.303,481.261,510.602,477.506,509.162,474.259z
			 M218.357,285.488l-24.743-22.061c-3.977-3.547-9.979-3.55-13.959-0.009l-24.842,22.088l-23.796-17.267l55.657-107.662
			l55.573,107.505L218.357,285.488z M404.46,328.619l-15.608-14.056c-3.988-3.592-10.045-3.596-14.038-0.009l-15.696,14.098
			l-13.251-9.66l35.73-80.554l35.782,80.673L404.46,328.619z"/>
	</g>
</g>
<g>
	<g>
		<path d="M112.499,377.288c-5.163-2.631-11.485-0.58-14.118,4.584l-31.147,61.092c-2.632,5.164-0.58,11.485,4.584,14.118
			c1.527,0.779,3.154,1.147,4.759,1.147c3.821,0,7.505-2.094,9.359-5.731l31.147-61.092
			C119.715,386.243,117.663,379.922,112.499,377.288z"/>
	</g>
</g>
<g>
	<g>
		<path d="M131.419,341.905c-5.059-2.835-11.454-1.031-14.287,4.025l-2.115,3.773c-2.834,5.057-1.032,11.454,4.025,14.287
			c1.624,0.91,3.385,1.341,5.121,1.341c3.675,0,7.242-1.933,9.166-5.367l2.115-3.773
			C138.278,351.135,136.476,344.738,131.419,341.905z"/>
	</g>
</g>
</svg>